<?xml version="1.0" encoding="UTF-8" standalone="no"?>
<!DOCTYPE svg PUBLIC "-//W3C//DTD SVG 1.1//EN" "http://www.w3.org/Graphics/SVG/1.1/DTD/svg11.dtd">
<svg width="100%" height="100%" viewBox="0 0 237 268" version="1.1" xmlns="http://www.w3.org/2000/svg" xmlns:xlink="http://www.w3.org/1999/xlink" xml:space="preserve" style="fill-rule:evenodd;clip-rule:evenodd;stroke-linejoin:round;stroke-miterlimit:1.41421;">
    <g transform="matrix(1,0,0,1,-748.289,-647.552)">
        <path d="M866.974,647.552L917.829,676.9L866.974,706.248L816.125,676.9L866.974,647.552Z" style="fill:rgb(63,81,181);"/>
    </g>
    <g transform="matrix(1,0,0,1,-748.289,-647.552)">
        <path d="M810.569,743.628L810.563,684.92L861.406,714.28L861.418,773L810.569,743.628Z" style="fill:rgb(0,188,212);"/>
    </g>
    <g transform="matrix(1,0,0,1,-748.289,-647.552)">
        <path d="M923.285,743.816L923.297,685.096L872.449,714.456L872.436,773.176L923.285,743.816Z" style="fill:rgb(233,30,99);"/>
    </g>
    <g transform="matrix(1,0,0,1,-748.289,-647.552)">
        <path d="M804.7,750.796L855.554,780.144L804.7,809.493L753.851,780.144L804.7,750.796Z" style="fill:rgb(194,24,91);"/>
    </g>
    <g transform="matrix(1,0,0,1,-748.289,-647.552)">
        <path d="M748.295,846.872L748.289,788.164L799.132,817.524L799.143,876.244L748.295,846.872Z" style="fill:rgb(233,30,99);"/>
    </g>
    <g transform="matrix(1,0,0,1,-748.289,-647.552)">
        <path d="M861.01,847.049L861.016,788.341L810.174,817.712L810.167,876.421L861.01,847.049Z" style="fill:rgb(63,81,181);"/>
    </g>
    <g transform="matrix(1,0,0,1,-748.289,-647.552)">
        <path d="M928.434,752.438L979.288,781.786L928.434,811.134L877.579,781.786L928.434,752.438Z" style="fill:rgb(48,63,159);"/>
    </g>
    <g transform="matrix(1,0,0,1,-748.289,-647.552)">
        <path d="M872.029,848.513L872.017,789.793L922.859,819.165L922.872,877.885L872.029,848.513Z" style="fill:rgb(0,151,167);"/>
    </g>
    <g transform="matrix(1,0,0,1,-748.289,-647.552)">
        <path d="M984.739,848.691L984.751,789.983L933.909,819.343L933.896,878.063L984.739,848.691Z" style="fill:rgb(194,24,91);"/>
    </g>
    <g transform="matrix(1,0,0,1,-748.289,-647.552)">
        <path d="M934.304,744.454L934.298,685.734L985.135,715.106L985.147,773.814L934.304,744.454Z" style="fill:rgb(0,151,167);"/>
    </g>
    <g transform="matrix(1,0,0,1,-748.289,-647.552)">
        <path d="M800.377,744.631L800.383,685.911L749.54,715.283L749.529,773.991L800.377,744.631Z" style="fill:rgb(48,63,159);"/>
    </g>
    <g transform="matrix(1,0,0,1,-748.289,-647.552)">
        <path d="M866.974,856.497L917.829,885.845L866.974,915.193L816.125,885.845L866.974,856.497Z" style="fill:rgb(0,188,212);"/>
    </g>
</svg>
