<?xml version="1.0" encoding="UTF-8" standalone="no"?>
<!DOCTYPE svg PUBLIC "-//W3C//DTD SVG 1.1//EN" "http://www.w3.org/Graphics/SVG/1.1/DTD/svg11.dtd">
<svg width="100%" height="100%" viewBox="0 0 209 269" version="1.1" xmlns="http://www.w3.org/2000/svg" xmlns:xlink="http://www.w3.org/1999/xlink" xml:space="preserve" style="fill-rule:evenodd;clip-rule:evenodd;stroke-linejoin:round;stroke-miterlimit:1.41421;">
    <g transform="matrix(-0.769,0.6392,-0.6392,-0.769,1341.01,-110.367)">
        <rect x="1086.8" y="610.4" width="17.5" height="96.1" style="fill:rgb(0,188,212);fill-rule:nonzero;"/>
    </g>
    <g transform="matrix(1,0,0,1,-1017.91,-575.018)">
        <path d="M1073.6,618.5L1060.2,629.7L1063,633.1C1063,633 1072.6,625.3 1073.6,618.5Z" style="fill:rgb(0,151,167);fill-rule:nonzero;"/>
    </g>
    <g transform="matrix(1,0,0,1,-1017.91,-575.018)">
        <path d="M1214.2,677.6L1052,677.6L1066.4,844L1199.8,844L1214.2,677.6Z" style="fill:rgb(63,81,181);"/>
    </g>
    <g transform="matrix(1,0,0,1,-1017.91,-575.018)">
        <path d="M1218.9,682.8C1218.9,680.8 1220.5,679.2 1222.5,679.2C1224.5,679.2 1226.1,680.8 1226.1,682.8C1226.1,683.8 1226.1,689.2 1226,694.5C1226,697.4 1225.9,699.8 1225.9,700.6L1225.9,700.7C1224.2,724.9 1213.2,746.6 1196.5,762.2C1179.9,777.7 1157.6,787.2 1133.1,787.2C1108.6,787.2 1086.3,777.7 1069.7,762.3C1053,746.7 1042,725 1040.3,700.8C1040.2,700.1 1040.2,697.6 1040.2,694.7C1040.1,689.3 1040.1,684 1040.1,682.9C1040.1,680.9 1041.7,679.3 1043.7,679.3C1045.7,679.3 1047.3,680.9 1047.3,682.9C1047.3,684.6 1047.3,690.7 1047.4,694.6C1047.4,697.2 1047.5,699.5 1047.5,700.3C1049.1,722.6 1059.2,742.6 1074.6,757C1089.9,771.3 1110.5,780 1133.1,780C1155.7,780 1176.3,771.3 1191.6,757C1207,742.6 1217.1,722.7 1218.7,700.3L1218.7,700.2C1218.8,699.4 1218.8,697.2 1218.8,694.6C1218.9,690.6 1218.9,684.4 1218.9,682.8Z" style="fill:rgb(64,64,65);fill-rule:nonzero;"/>
    </g>
    <g transform="matrix(1,0,0,1,-1017.91,-575.018)">
        <path d="M1208.1,689.4C1197.3,669.7 1158.7,645.4 1147.6,643.6C1136.3,641.7 1074.9,656.2 1054.6,693.2C1105.8,691.9 1156.9,690.6 1208.1,689.4Z" style="fill:rgb(224,247,250);"/>
    </g>
    <g transform="matrix(1,0,0,1,-1017.91,-575.018)">
        <path d="M1214.2,677.6L1052,677.6L1056.7,733.1L1211.1,713.6L1214.2,677.6Z" style="fill:rgb(90,56,54);fill-opacity:0.5;"/>
    </g>
    <g transform="matrix(1,0,0,1,-1017.91,-575.018)">
        <rect x="1045.7" y="674.9" width="174.8" height="31.1" style="fill:rgb(63,81,181);"/>
    </g>
    <g transform="matrix(1,0,0,1,-1017.91,-575.018)">
        <path d="M1067.6,624.9C1082.4,612.6 1084.5,590.5 1072.1,575.7C1066.5,569 1012.8,613.7 1018.3,620.4C1030.7,635.2 1052.7,637.2 1067.6,624.9ZM1050.1,603.9C1056.3,598.7 1061.5,595.1 1065.3,592.6C1067.3,600.2 1064.9,608.6 1058.5,613.9C1052.1,619.2 1043.4,620 1036.3,616.7C1039.3,613.5 1043.9,609.1 1050.1,603.9Z" style="fill:rgb(0,188,212);fill-rule:nonzero;"/>
    </g>
</svg>
