<?xml version="1.0" encoding="UTF-8" standalone="no"?>
<!DOCTYPE svg PUBLIC "-//W3C//DTD SVG 1.1//EN" "http://www.w3.org/Graphics/SVG/1.1/DTD/svg11.dtd">
<svg width="100%" height="100%" viewBox="0 0 171 260" version="1.1" xmlns="http://www.w3.org/2000/svg" xmlns:xlink="http://www.w3.org/1999/xlink" xml:space="preserve" style="fill-rule:evenodd;clip-rule:evenodd;stroke-linejoin:round;stroke-miterlimit:1.41421;">
    <g transform="matrix(1,0,0,1,-1103.52,-336.073)">
        <path d="M1258.95,459.831L1259.75,459.567L1260.14,460.228L1258.95,459.831Z" style="fill:rgb(56,145,71);fill-rule:nonzero;"/>
    </g>
    <g transform="matrix(1,0,0,1,-1103.52,-336.073)">
        <path d="M1245.47,574.069C1228.01,590.464 1207.7,597.428 1184.51,594.96C1170.76,593.549 1158.38,589.539 1147.36,582.928L1268.74,536.254C1264.6,550.798 1256.84,563.403 1245.47,574.069" style="fill:rgb(194,24,91);fill-rule:nonzero;"/>
    </g>
    <g transform="matrix(1,0,0,1,-1103.52,-336.073)">
        <path d="M1268.74,535.857L1268.74,536.254C1224.75,567.017 1184.29,582.575 1147.36,582.927C1138.99,578.432 1131.45,572.438 1124.75,564.945C1110.74,549.343 1103.77,531.406 1103.86,511.132L1105.84,510.339L1268.74,535.857" style="fill:rgb(233,30,99);fill-rule:nonzero;"/>
    </g>
    <g transform="matrix(1,0,0,1,-1103.52,-336.073)">
        <path d="M1264.9,469.086C1270.99,483.278 1273.85,496.455 1273.5,508.62C1273.32,518.404 1271.73,527.483 1268.74,535.857C1201.92,535.416 1147.62,526.91 1105.84,510.339L1258.95,459.831L1260.14,460.227C1262.17,463.489 1263.76,466.442 1264.9,469.086" style="fill:rgb(0,151,167);fill-rule:nonzero;"/>
    </g>
    <g transform="matrix(1,0,0,1,-1103.52,-336.073)">
        <path d="M1105.84,510.339L1103.73,510.075C1103.37,506.108 1103.46,502.009 1103.99,497.778C1107.16,472.656 1115.89,447.755 1130.17,423.074L1258.82,459.831C1217.75,486.539 1166.75,503.375 1105.84,510.339" style="fill:rgb(0,188,212);fill-rule:nonzero;"/>
    </g>
    <g transform="matrix(1,0,0,1,-1103.52,-336.073)">
        <path d="M1222.59,391.077C1227.27,400.861 1234.32,413.731 1243.75,429.685C1250.8,441.585 1256.13,451.545 1259.75,459.567L1258.82,459.831C1196.15,454.807 1153.27,442.555 1130.17,423.074L1130.44,422.545L1222.59,391.077" style="fill:rgb(48,63,159);fill-rule:nonzero;"/>
    </g>
    <g transform="matrix(1,0,0,1,-1103.52,-336.073)">
        <path d="M1134.4,414.215C1152.3,384.774 1175.7,358.727 1204.61,336.073C1207.08,352.38 1212.28,369.216 1220.21,386.581L1222.59,391.077C1201.79,410.557 1171.07,421.046 1130.43,422.545C1131.49,419.636 1132.82,416.859 1134.4,414.215" style="fill:rgb(63,81,181);fill-rule:nonzero;"/>
    </g>
</svg>
