<?xml version="1.0" encoding="UTF-8" standalone="no"?>
<!DOCTYPE svg PUBLIC "-//W3C//DTD SVG 1.1//EN" "http://www.w3.org/Graphics/SVG/1.1/DTD/svg11.dtd">
<svg width="100%" height="100%" viewBox="0 0 32 32" version="1.1" xmlns="http://www.w3.org/2000/svg" xmlns:xlink="http://www.w3.org/1999/xlink" xml:space="preserve" style="fill-rule:evenodd;clip-rule:evenodd;stroke-linejoin:round;stroke-miterlimit:1.41421;">
    <rect x="0" y="0" width="32" height="32" style="fill:rgb(63,81,181);"/>
    <g transform="matrix(1,0,0,1,-3.28504,-5.43906)">
        <path d="M13.525,32.929C11.765,32.059 10.415,30.824 9.475,29.224C8.535,27.624 8.065,25.764 8.065,23.644C8.065,20.704 8.62,18.094 9.73,15.814C10.84,13.534 12.345,11.769 14.245,10.519C16.145,9.269 18.255,8.644 20.575,8.644C22.735,8.644 24.375,9.199 25.495,10.309C26.615,11.419 27.175,12.884 27.175,14.704C27.175,15.924 26.96,16.904 26.53,17.644C26.1,18.384 25.485,18.754 24.685,18.754C24.125,18.754 23.685,18.624 23.365,18.364C23.045,18.104 22.885,17.724 22.885,17.224C22.885,17.044 22.925,16.714 23.005,16.234C23.125,15.634 23.185,15.154 23.185,14.794C23.185,12.974 22.215,12.064 20.275,12.064C18.955,12.064 17.695,12.494 16.495,13.354C15.295,14.214 14.325,15.479 13.585,17.149C12.845,18.819 12.475,20.804 12.475,23.104C12.475,25.504 13.145,27.359 14.485,28.669C15.825,29.979 17.805,30.634 20.425,30.634C21.725,30.634 23.04,30.469 24.37,30.139C25.7,29.809 27.175,29.304 28.795,28.624C29.095,28.504 29.345,28.444 29.545,28.444C29.865,28.444 30.105,28.564 30.265,28.804C30.425,29.044 30.505,29.354 30.505,29.734C30.505,30.954 29.845,31.854 28.525,32.434C27.105,33.054 25.63,33.509 24.1,33.799C22.57,34.089 21.115,34.234 19.735,34.234C17.355,34.234 15.285,33.799 13.525,32.929Z" style="fill:white;fill-rule:nonzero;"/>
    </g>
</svg>
