<?xml version="1.0" encoding="UTF-8" standalone="no"?>
<!DOCTYPE svg PUBLIC "-//W3C//DTD SVG 1.1//EN" "http://www.w3.org/Graphics/SVG/1.1/DTD/svg11.dtd">
<svg width="100%" height="100%" viewBox="0 0 267 267" version="1.1" xmlns="http://www.w3.org/2000/svg" xmlns:xlink="http://www.w3.org/1999/xlink" xml:space="preserve" style="fill-rule:evenodd;clip-rule:evenodd;stroke-linejoin:round;stroke-miterlimit:1.41421;">
    <g transform="matrix(1,0,0,1,-89.6931,-42.2761)">
        <path d="M264.149,266.922C264.149,289.796 245.601,308.344 222.727,308.344C199.846,308.344 181.302,289.796 181.302,266.922C181.302,244.043 222.727,175.312 222.727,175.312C222.727,175.312 264.149,244.043 264.149,266.922" style="fill:rgb(63,81,181);fill-rule:nonzero;"/>
    </g>
    <g transform="matrix(1,0,0,1,-89.6931,-42.2761)">
        <path d="M316.794,210.799C332.966,226.973 332.966,253.204 316.794,269.376C300.618,285.554 274.39,285.552 258.217,269.376C242.036,253.202 222.727,175.309 222.727,175.309C222.727,175.309 300.618,194.621 316.794,210.799" style="fill:rgb(0,151,167);fill-rule:nonzero;"/>
    </g>
    <g transform="matrix(1,0,0,1,-89.6931,-42.2761)">
        <path d="M314.336,133.89C337.212,133.888 355.758,152.434 355.754,175.31C355.758,198.186 337.212,216.732 314.336,216.73C291.456,216.732 222.727,175.31 222.727,175.31C222.727,175.31 291.456,133.888 314.336,133.89" style="fill:rgb(233,30,99);fill-rule:nonzero;"/>
    </g>
    <g transform="matrix(1,0,0,1,-89.6931,-42.2761)">
        <path d="M258.216,81.243C274.39,65.065 300.622,65.065 316.793,81.243C332.969,97.417 332.965,123.646 316.793,139.818C300.617,155.996 222.726,175.31 222.726,175.31C222.726,175.31 242.035,97.417 258.216,81.243" style="fill:rgb(0,188,212);fill-rule:nonzero;"/>
    </g>
    <g transform="matrix(1,0,0,1,-89.6931,-42.2761)">
        <path d="M181.303,83.698C181.303,60.824 199.851,42.276 222.727,42.276C245.601,42.276 264.15,60.824 264.145,83.698C264.15,106.574 222.727,175.31 222.727,175.31C222.727,175.31 181.303,106.574 181.303,83.698" style="fill:rgb(63,81,181);fill-rule:nonzero;"/>
    </g>
    <g transform="matrix(1,0,0,1,-89.6931,-42.2761)">
        <path d="M128.658,139.818C112.478,123.646 112.478,97.415 128.658,81.243C144.832,65.065 171.063,65.065 187.235,81.243C203.411,97.417 222.727,175.31 222.727,175.31C222.727,175.31 144.832,155.996 128.658,139.818" style="fill:rgb(0,151,167);fill-rule:nonzero;"/>
    </g>
    <g transform="matrix(1,0,0,1,-89.6931,-42.2761)">
        <path d="M131.113,216.73C108.241,216.732 89.693,198.186 89.693,175.31C89.693,152.432 108.241,133.888 131.113,133.888C153.987,133.888 222.727,175.31 222.727,175.31C222.727,175.31 153.987,216.732 131.113,216.73" style="fill:rgb(233,30,99);fill-rule:nonzero;"/>
    </g>
    <g transform="matrix(1,0,0,1,-89.6931,-42.2761)">
        <path d="M187.235,269.377C171.063,285.553 144.832,285.553 128.658,269.377C112.478,253.203 112.478,226.974 128.658,210.8C144.832,194.622 222.727,175.31 222.727,175.31C222.727,175.31 203.411,253.203 187.235,269.377" style="fill:rgb(0,188,212);fill-rule:nonzero;"/>
    </g>
    <g transform="matrix(1,0,0,1,-89.6931,-42.2761)">
        <path d="M221.65,249.045C218.658,226.971 219.066,205.257 223.471,183.576C223.649,181.783 222.727,175.312 222.727,175.312C222.727,175.312 181.303,244.043 181.303,266.922C181.303,289.796 199.847,308.344 222.727,308.344C229.735,308.344 236.326,306.586 242.113,303.514C229.508,288.647 224.249,268.243 221.65,249.045" style="fill:rgb(63,81,181);fill-rule:nonzero;"/>
    </g>
</svg>
