<?xml version="1.0" encoding="UTF-8" standalone="no"?>
<!DOCTYPE svg PUBLIC "-//W3C//DTD SVG 1.1//EN" "http://www.w3.org/Graphics/SVG/1.1/DTD/svg11.dtd">
<svg width="100%" height="100%" viewBox="0 0 330 137" version="1.1" xmlns="http://www.w3.org/2000/svg" xmlns:xlink="http://www.w3.org/1999/xlink" xml:space="preserve" style="fill-rule:evenodd;clip-rule:evenodd;stroke-linejoin:round;stroke-miterlimit:1.41421;">
    <g transform="matrix(1,0,0,1,-131.623,-242.8)">
        <path d="M441.4,275.9C441.4,275.9 443.2,273.7 430.7,279C403.3,290.4 377.7,313.5 375.9,314.6C374.1,315.7 370.5,323.8 373.9,328.7C377.2,333.6 384.7,329.7 384.7,329.7L411.2,301.1C411.2,301.1 415.2,295.6 419.1,299.3C430.6,310.3 441.4,309.3 441.4,309.3L448.2,313.7L443.3,267.4L441.4,275.9Z" style="fill:rgb(5,82,94);fill-rule:nonzero;"/>
        <path d="M153.1,275.9C153.1,275.9 151.3,273.7 163.8,279C191.2,290.4 216.8,313.5 218.6,314.6C220.4,315.7 224,323.8 220.6,328.7C217.3,333.6 209.8,329.7 209.8,329.7L183.3,301.1C183.3,301.1 179.3,295.6 175.4,299.3C163.9,310.3 153.1,309.3 153.1,309.3L146.3,313.7L151.2,267.4L153.1,275.9Z" style="fill:rgb(5,82,94);fill-rule:nonzero;"/>
        <path d="M382.9,245.7C358.2,248.7 333.6,252.9 319,264.3C300.1,276.6 274.6,264.3 274.6,264.3C260,252.8 235.3,248.7 210.7,245.7C121.3,234.9 130.5,278.6 137.9,314.6C145.3,350.8 166.8,379.6 210.7,379.6C249.7,379.6 275.4,344.1 285.5,308.6C286.5,305.1 287.2,301.8 287.6,298.7C294.7,296.7 301.1,297.4 306.1,298.7C306.5,301.8 307.2,305.1 308.2,308.6C318.3,344.2 344,379.6 383,379.6C426.9,379.6 448.4,350.8 455.8,314.6C463.1,278.6 472.3,234.9 382.9,245.7ZM272.2,311.8C264,340.5 243.3,369.2 211.8,369.2C176.3,369.2 158.9,346 152.9,316.7C147,287.6 139,258.6 211.8,261C241.6,262 283.3,272.8 272.2,311.8ZM441,317.5C435,346.8 417.6,370 382.1,370C350.6,370 329.8,341.3 321.7,312.6C310.6,273.6 352.3,262.8 382.1,261.8C454.8,259.4 446.9,288.3 441,317.5Z" style="fill:rgb(224,247,250);fill-rule:nonzero;"/>
        <path d="M453,257.3C444.7,247.5 429.8,242.8 407.6,242.8C400.1,242.8 391.5,243.4 382.3,244.5C359.1,247.3 333.2,251.3 317.8,263.3C312.5,266.8 306,268.6 298.6,268.6C286.6,268.6 276,263.9 274.8,263.3C259.4,251.3 233.4,247.3 210.3,244.5C201,243.4 192.5,242.8 185,242.8C162.8,242.8 147.9,247.6 139.6,257.3C129.7,268.9 131,285.9 133.1,299.5C133.2,300.1 133.7,300.6 134.4,300.6L149.3,300.6C150,300.6 150.6,300 150.6,299.3C150.6,299.2 150.6,299 150.5,298.9C149.2,287.7 150.8,280.2 155.7,274.6C163.9,265.3 182,261.3 211.2,262.3C225.4,262.8 271.9,266.8 272.2,299.3C272.2,300 272.8,300.6 273.5,300.6L287,300.6C287.5,300.6 288,300.3 288.2,299.8C293.5,298.5 299.1,298.5 304.5,299.8C304.7,300.3 305.2,300.6 305.7,300.6L319.5,300.6C320.2,300.6 320.8,300 320.8,299.3C321.8,267.5 367.8,263.5 381.8,263C410.9,262.1 429,266 437.3,275.3C442.2,280.8 443.8,288.1 442.6,299.1C442.6,299.5 442.7,299.8 442.9,300.1C443.1,300.4 443.5,300.5 443.9,300.5L458.3,300.5C458.9,300.5 459.5,300 459.6,299.4C461.6,285.9 462.8,268.9 453,257.3Z" style="fill:rgb(233,30,99);fill-rule:nonzero;"/>
    </g>
</svg>
