<?xml version="1.0" encoding="UTF-8" standalone="no"?>
<!DOCTYPE svg PUBLIC "-//W3C//DTD SVG 1.1//EN" "http://www.w3.org/Graphics/SVG/1.1/DTD/svg11.dtd">
<svg width="100%" height="100%" viewBox="0 0 143 333" version="1.1" xmlns="http://www.w3.org/2000/svg" xmlns:xlink="http://www.w3.org/1999/xlink" xml:space="preserve" style="fill-rule:evenodd;clip-rule:evenodd;stroke-linejoin:round;stroke-miterlimit:1.41421;">
    <g transform="matrix(1,0,0,1,-638,-138.1)">
        <rect x="682.9" y="184.5" width="52.6" height="63.4" style="fill:rgb(224,247,250);fill-rule:nonzero;"/>
        <path d="M749.3,249.5L668.6,249.5C661.6,344.4 653.2,461.2 653.2,461.2L767,461.2C767,461.2 757.3,346.1 749.3,249.5Z" style="fill:rgb(224,247,250);fill-rule:nonzero;"/>
        <path d="M716.5,249.5L665.8,286.9C664.5,304.3 663.2,321.9 662,338.8L751.2,272.9C750.5,265 749.9,257.2 749.3,249.5L716.5,249.5L716.5,249.5Z" style="fill:rgb(63,81,181);fill-rule:nonzero;"/>
        <path d="M754.7,314.6L658.7,385.6C657.2,406.3 655.9,424.2 654.9,437.5L758.6,360.9C757.3,346 756,330.4 754.7,314.6Z" style="fill:rgb(63,81,181);fill-rule:nonzero;"/>
        <path d="M762,402.4L682.5,461.2L748.9,461.2L765.9,448.7C765.1,438.3 763.7,422.1 762,402.4Z" style="fill:rgb(63,81,181);fill-rule:nonzero;"/>
        <rect x="638" y="461.2" width="142.3" height="9.1" style="fill:rgb(64,64,65);fill-rule:nonzero;"/>
        <rect x="662.1" y="229.7" width="94.2" height="5.7" style="fill:rgb(64,64,65);fill-rule:nonzero;"/>
        <rect x="669.1" y="192.6" width="80" height="3.4" style="fill:rgb(64,64,65);fill-rule:nonzero;"/>
        <rect x="659.3" y="186.7" width="99.7" height="4.3" style="fill:rgb(64,64,65);fill-rule:nonzero;"/>
        <path d="M709.2,143.6L664,188.8L754.3,188.8L709.2,143.6Z" style="fill:rgb(64,64,65);fill-rule:nonzero;"/>
        <path d="M717.6,146.5C717.6,151.108 713.808,154.9 709.2,154.9C704.592,154.9 700.8,151.108 700.8,146.5C700.8,141.892 704.592,138.1 709.2,138.1C713.808,138.1 717.6,141.892 717.6,146.5Z" style="fill:rgb(64,64,65);fill-rule:nonzero;"/>
        <path d="M666.8,274.3L750.3,261L749.3,249.5L668.6,249.5L666.8,274.3Z" style="fill:rgb(90,56,54);fill-opacity:0.5;"/>
        <rect x="662.1" y="244.9" width="94.2" height="9.1" style="fill:rgb(64,64,65);fill-rule:nonzero;"/>
    </g>
</svg>
