<?xml version="1.0" encoding="UTF-8" standalone="no"?>
<!DOCTYPE svg PUBLIC "-//W3C//DTD SVG 1.1//EN" "http://www.w3.org/Graphics/SVG/1.1/DTD/svg11.dtd">
<svg width="100%" height="100%" viewBox="0 0 98 252" version="1.1" xmlns="http://www.w3.org/2000/svg" xmlns:xlink="http://www.w3.org/1999/xlink" xml:space="preserve" style="fill-rule:evenodd;clip-rule:evenodd;stroke-linejoin:round;stroke-miterlimit:1.41421;">
    <g transform="matrix(1,0,0,1,-660.6,-583.5)">
        <path d="M718.1,690.6L718.1,826.6C718.1,831.5 714.1,835.5 709.2,835.5C704.3,835.5 700.3,831.5 700.3,826.6L700.3,690.6L718.1,690.6Z" style="fill:rgb(247,162,131);"/>
    </g>
    <g transform="matrix(1,0,0,1,-660.6,-583.5)">
        <path d="M718.1,728.9L718.1,787.8L700.2,799L700.2,728.9L718.1,728.9Z" style="fill:rgb(90,56,54);fill-opacity:0.5;"/>
    </g>
    <g transform="matrix(1,0,0,1,-660.6,-583.5)">
        <path d="M757.7,712.8L757.7,767.9C757.7,772.4 754.8,776 749.5,776C722.6,776 695.8,776 668.9,776C663.5,776 660.7,772.4 660.7,767.9L660.7,712.8L757.7,712.8Z" style="fill:rgb(233,30,99);"/>
    </g>
    <g transform="matrix(1,0,0,1,-660.6,-583.5)">
        <rect x="660.6" y="646.7" width="97.1" height="66.1" style="fill:rgb(224,247,250);"/>
    </g>
    <g transform="matrix(1,0,0,1,-660.6,-583.5)">
        <path d="M748.6,624.5C748.2,624.3 747.9,624.1 747.5,623.9C744.6,622.5 741,623.7 738.1,621.7C735,619.6 733.1,616.7 729.8,614.9C726.8,613.4 725,610.2 724.9,606.9C724.9,604.6 725.7,602.7 724.7,600.7C723.7,598.8 722.3,597.9 723,595.5C723.7,593 725.6,589.9 725.2,587.3C724.8,585.1 722.5,585.1 720.4,584.7C716.6,583.9 712.6,583.5 708.7,583.5C701,583.6 693.2,585.3 686.3,588.7C669.6,596.8 660.7,613.6 660.7,631.9L660.7,646.7C660.7,646.7 671.2,646.7 671.8,646.7C678.4,646.7 684.3,646.6 688.4,652.7C689.8,654.8 690.5,656.3 692.9,657.3C695,658.2 697.8,657.1 699.7,658C703,659.5 704.8,665.8 706.8,668.7C709.8,672.9 719,677.6 722.4,672.1C725.8,666.7 722.4,663.9 730.6,665C735.5,665.6 737.8,663.8 740.5,659.4C742.9,655.4 742.5,655.4 746.2,653.1C748.5,651.6 749.1,648.1 751.1,646.9C752.4,646.1 756.3,646.7 757.9,646.7L757.9,631.9C757.9,629.4 758.3,627.2 755.7,626.2C754.4,625.7 753,625.9 751.6,625.7C750.2,625.4 749.4,625 748.6,624.5Z" style="fill:rgb(0,188,212);"/>
    </g>
</svg>
