<?xml version="1.0" encoding="UTF-8" standalone="no"?>
<!DOCTYPE svg PUBLIC "-//W3C//DTD SVG 1.1//EN" "http://www.w3.org/Graphics/SVG/1.1/DTD/svg11.dtd">
<svg width="100%" height="100%" viewBox="0 0 270 374" version="1.1" xmlns="http://www.w3.org/2000/svg" xmlns:xlink="http://www.w3.org/1999/xlink" xml:space="preserve" style="fill-rule:evenodd;clip-rule:evenodd;stroke-linejoin:round;stroke-miterlimit:1.41421;">
    <g transform="matrix(1,0,0,1,-1013,-498.2)">
        <path d="M1218.9,541.8L1150.9,523.7L1150.9,559L1218.9,541.8Z" style="fill:rgb(63,81,181);fill-rule:nonzero;"/>
    </g>
    <g transform="matrix(1,0,0,1,-1013,-498.2)">
        <path d="M1265.9,764.1L1150.9,570.2L1150.9,764.1L1265.9,764.1Z" style="fill:rgb(63,81,181);fill-rule:nonzero;"/>
    </g>
    <g transform="matrix(1,0,0,1,-1013,-498.2)">
        <path d="M1029.4,764.1L1140.9,764.1L1140.9,554.3L1029.4,764.1Z" style="fill:rgb(63,81,181);fill-rule:nonzero;"/>
    </g>
    <g transform="matrix(1,0,0,1,-1013,-498.2)">
        <path d="M1099.2,810.9C1099.2,821.049 1090.85,829.4 1080.7,829.4C1070.55,829.4 1062.2,821.049 1062.2,810.9C1062.2,800.751 1070.55,792.4 1080.7,792.4C1090.85,792.4 1099.2,800.751 1099.2,810.9Z" style="fill:rgb(63,81,181);fill-rule:nonzero;"/>
    </g>
    <g transform="matrix(1,0,0,1,-1013,-498.2)">
        <path d="M1154.8,810.9C1154.8,821.049 1146.45,829.4 1136.3,829.4C1126.15,829.4 1117.8,821.049 1117.8,810.9C1117.8,800.751 1126.15,792.4 1136.3,792.4C1146.45,792.4 1154.8,800.751 1154.8,810.9Z" style="fill:rgb(63,81,181);fill-rule:nonzero;"/>
    </g>
    <g transform="matrix(1,0,0,1,-1013,-498.2)">
        <path d="M1210.3,810.9C1210.3,821.049 1201.95,829.4 1191.8,829.4C1181.65,829.4 1173.3,821.049 1173.3,810.9C1173.3,800.751 1181.65,792.4 1191.8,792.4C1201.95,792.4 1210.3,800.751 1210.3,810.9Z" style="fill:rgb(63,81,181);fill-rule:nonzero;"/>
    </g>
    <g transform="matrix(1,0,0,1,-1013,-498.2)">
        <path d="M1150.9,764.1L1150.9,570.2L1150.9,559L1150.9,523.7L1150.9,521.3C1155.1,519.4 1158,515.2 1158,510.3C1158,503.6 1152.6,498.2 1145.9,498.2C1139.2,498.2 1133.8,503.6 1133.8,510.3C1133.8,515.2 1136.7,519.4 1140.9,521.3L1140.9,770L1013,770C1013,837 1073.3,872.2 1147.6,872.2C1221.9,872.2 1282.3,837 1282.3,770L1150.9,770L1150.9,764.1L1150.9,764.1ZM1080.7,829.4C1070.5,829.4 1062.2,821.1 1062.2,810.9C1062.2,800.7 1070.5,792.4 1080.7,792.4C1090.9,792.4 1099.2,800.7 1099.2,810.9C1099.2,821.1 1090.9,829.4 1080.7,829.4ZM1191.8,792.4C1202,792.4 1210.3,800.7 1210.3,810.9C1210.3,821.1 1202,829.4 1191.8,829.4C1181.6,829.4 1173.3,821.1 1173.3,810.9C1173.3,800.6 1181.6,792.4 1191.8,792.4ZM1136.3,829.4C1126.1,829.4 1117.8,821.1 1117.8,810.9C1117.8,800.7 1126.1,792.4 1136.3,792.4C1146.5,792.4 1154.8,800.7 1154.8,810.9C1154.8,821.1 1146.5,829.4 1136.3,829.4Z" style="fill:rgb(0,188,212);fill-rule:nonzero;"/>
    </g>
    <g transform="matrix(1,0,0,1,-1013,-498.2)">
        <path d="M1150.9,764.1L1265.9,764.1L1150.9,570.2L1150.9,559L1218.9,541.8L1150.9,523.7L1150.9,521.3C1155.1,519.4 1158,515.2 1158,510.3C1158,504.2 1153.5,499.2 1147.7,498.3L1147.7,872.2C1222.1,872.2 1282.3,837.1 1282.3,770L1150.9,770L1150.9,764.1L1150.9,764.1Z" style="fill:rgb(65,64,66);fill-opacity:0.14;fill-rule:nonzero;"/>
    </g>
</svg>
