<?xml version="1.0" encoding="UTF-8" standalone="no"?>
<!DOCTYPE svg PUBLIC "-//W3C//DTD SVG 1.1//EN" "http://www.w3.org/Graphics/SVG/1.1/DTD/svg11.dtd">
<svg width="100%" height="100%" viewBox="0 0 300 300" version="1.1" xmlns="http://www.w3.org/2000/svg" xmlns:xlink="http://www.w3.org/1999/xlink" xml:space="preserve" style="fill-rule:evenodd;clip-rule:evenodd;stroke-linejoin:round;stroke-miterlimit:1.41421;">
    <g transform="matrix(1,0,0,1,-72.7238,-631.372)">
        <path d="M267.906,753.823C267.382,753.823 266.869,753.805 266.326,753.757C257.64,752.966 252.785,744.848 247.163,735.444C243.152,728.731 238.616,721.168 231.97,715.317C232.283,713.694 232.585,712.036 232.917,710.377C234.051,704.158 235.251,697.74 237.452,692.523L238.611,689.845L235.981,688.549C222.584,681.889 209.954,678.777 196.214,678.777C188.119,678.777 179.597,679.808 169.746,682.028C173.088,678.94 176.568,675.882 180.001,672.86C194.911,659.753 209.055,647.286 209.212,635.964C231.445,650.615 252.296,664.916 269.734,681.877C271.127,683.198 272.484,684.556 273.817,685.937C292.943,705.389 301.4,721.891 303.361,744.07C298.004,745.101 292.557,747.038 287.262,748.931C285.102,749.709 282.931,750.475 280.814,751.169C277.044,752.394 272.147,753.823 267.906,753.823" style="fill:rgb(63,81,181);fill-rule:nonzero;"/>
    </g>
    <g transform="matrix(1,0,0,1,-72.7238,-631.372)">
        <path d="M295.393,832.555C291.84,828.447 287.425,824.702 283.119,821.059C281.382,819.574 279.651,818.097 277.998,816.612C274.373,813.367 270.41,809.472 268.486,805.298C264.891,797.45 269.42,789.247 274.698,779.758C278.541,772.907 282.823,765.193 284.524,756.47C286.117,755.934 287.739,755.361 289.349,754.776C295.327,752.665 301.455,750.463 307.089,749.763L309.959,749.407L309.779,746.483C308.307,723.213 300.273,705.28 282.274,685.786C286.581,687.136 290.984,688.627 295.327,690.074C309.085,694.713 322.065,699.098 331.897,699.098C335.986,699.098 339.286,698.356 341.897,696.848C340.293,724.395 338.381,748.834 332.452,772.322C331.957,774.193 331.463,776.068 330.944,777.949C323.603,804.157 313.549,819.719 295.393,832.555" style="fill:rgb(48,63,159);fill-rule:nonzero;"/>
    </g>
    <g transform="matrix(1,0,0,1,-72.7238,-631.372)">
        <path d="M249.239,877.768C237.362,877.768 226.366,875.259 214.792,869.891C216.589,864.764 217.663,859.082 218.664,853.545C219.068,851.319 219.509,849.082 219.961,846.916C220.986,842.169 222.344,836.807 225.009,833.073C229.925,825.859 238.876,825.72 250.24,825.558C258.081,825.443 266.87,825.31 275.271,822.464C276.496,823.574 277.799,824.671 279.114,825.769C283.933,829.877 288.909,834.117 292.311,838.629L294.084,840.969L296.509,839.328C315.907,826.336 327.409,810.364 335.287,785.073C336.294,789.47 337.199,794.018 338.104,798.469C342.048,818.018 345.818,836.577 355.602,842.296C329.243,855.571 307.782,865.56 285.35,871.887C283.523,872.406 281.683,872.894 279.801,873.371C268.009,876.368 258.317,877.768 249.239,877.768" style="fill:rgb(0,188,212);fill-rule:nonzero;"/>
    </g>
    <g transform="matrix(1,0,0,1,-72.7238,-631.372)">
        <path d="M110.167,777.66C109.16,773.257 108.255,768.721 107.338,764.252C103.411,744.709 99.671,726.168 89.846,720.467C116.193,707.198 137.653,697.197 160.121,690.889C161.967,690.351 163.801,689.869 165.658,689.404C177.444,686.383 187.173,684.977 196.215,684.977C208.097,684.977 219.093,687.498 230.68,692.872C228.882,698.012 227.851,703.693 226.819,709.188C226.409,711.444 225.981,713.682 225.511,715.847C224.582,720.305 223.146,725.92 220.45,729.696C215.534,736.904 206.571,737.031 195.22,737.193C187.414,737.314 178.584,737.453 170.182,740.276C168.946,739.19 167.631,738.062 166.316,736.952C161.502,732.857 156.514,728.61 153.119,724.111L151.351,721.758L148.914,723.399C129.534,736.434 118.086,752.387 110.167,777.66" style="fill:rgb(194,24,91);fill-rule:nonzero;"/>
    </g>
    <g transform="matrix(1,0,0,1,-72.7238,-631.372)">
        <path d="M163.197,876.966C158.878,875.609 154.463,874.137 150.163,872.672C141.46,869.737 133.082,866.909 125.614,865.221C121.244,864.233 117.185,863.635 113.556,863.636C109.491,863.636 106.198,864.384 103.55,865.904C105.154,838.369 107.054,813.959 113.026,790.424C113.502,788.566 113.991,786.684 114.516,784.808C121.832,758.643 131.905,743.051 150.066,730.16C153.637,734.305 158.034,738.057 162.347,741.718C164.084,743.196 165.803,744.649 167.456,746.133C171.075,749.39 175.025,753.256 176.985,757.448C180.599,765.32 176.032,773.511 170.749,783.011C166.931,789.868 162.63,797.564 160.923,806.275C159.331,806.824 157.72,807.403 156.11,807.97C150.168,810.099 144.011,812.288 138.401,812.982L135.494,813.344L135.669,816.263C137.14,839.552 145.217,857.477 163.197,876.966" style="fill:rgb(233,30,99);fill-rule:nonzero;"/>
    </g>
    <g transform="matrix(1,0,0,1,-72.7238,-631.372)">
        <path d="M236.271,926.781C213.996,912.148 193.138,897.829 175.725,880.886C174.344,879.547 172.98,878.202 171.629,876.827C152.515,857.387 144.059,840.854 142.086,818.675C147.455,817.656 152.895,815.702 158.197,813.82C160.38,813.042 162.521,812.276 164.621,811.582C168.402,810.352 173.3,808.922 177.546,808.922C178.065,808.922 178.584,808.946 179.12,808.995C187.818,809.779 192.68,817.916 198.289,827.295C202.325,834.026 206.848,841.596 213.513,847.471C213.193,849.106 212.886,850.776 212.584,852.447C211.414,858.635 210.22,865.041 208.018,870.222L206.855,872.913L209.49,874.228C222.887,880.88 235.505,883.975 249.245,883.975C257.339,883.975 265.85,882.931 275.712,880.723C272.37,883.812 268.866,886.882 265.458,889.885C250.505,903.028 236.355,915.496 236.271,926.781" style="fill:rgb(0,151,167);fill-rule:nonzero;"/>
    </g>
</svg>
