<?xml version="1.0" encoding="UTF-8" standalone="no"?>
<!DOCTYPE svg PUBLIC "-//W3C//DTD SVG 1.1//EN" "http://www.w3.org/Graphics/SVG/1.1/DTD/svg11.dtd">
<svg width="100%" height="100%" viewBox="0 0 284 245" version="1.1" xmlns="http://www.w3.org/2000/svg" xmlns:xlink="http://www.w3.org/1999/xlink" xml:space="preserve" style="fill-rule:evenodd;clip-rule:evenodd;stroke-linejoin:round;stroke-miterlimit:1.41421;">
    <g transform="matrix(1,0,0,1,-392.107,-343.606)">
        <clipPath id="_clip1">
            <path d="M463.104,465.756L392.107,587.911L676.086,587.911L605.092,465.756L534.095,343.606L463.104,465.756Z"/>
        </clipPath>
        <g clip-path="url(#_clip1)">
            <g>
                <clipPath id="_clip2">
                    <rect x="365.88" y="317.058" width="344.054" height="343.98"/>
                </clipPath>
                <g clip-path="url(#_clip2)">
                    <g transform="matrix(1.01974,0,0,0.947488,-14.0158,34.7125)">
                        <path d="M623.935,638.079C598.639,652.676 569.264,661.038 537.907,661.038C506.55,661.038 477.174,652.676 451.879,638.079L451.908,638.05L537.849,489.165L537.965,489.165L623.935,638.05L623.935,638.079Z" style="fill:rgb(0,151,167);fill-rule:nonzero;"/>
                    </g>
                    <g transform="matrix(1.01974,0,0,0.947488,-14.0158,34.7125)">
                        <path d="M623.935,638.079L623.935,638.05L537.965,489.165L709.934,489.165C709.905,552.856 675.342,608.36 623.935,638.079" style="fill:rgb(0,188,212);fill-rule:nonzero;"/>
                    </g>
                    <g transform="matrix(1.01974,0,0,0.947488,-14.0158,34.7125)">
                        <path d="M451.908,638.05L451.879,638.079C400.472,608.36 365.909,552.856 365.88,489.165L537.849,489.165L451.908,638.05Z" style="fill:rgb(233,30,99);fill-rule:nonzero;"/>
                    </g>
                    <g transform="matrix(1.01974,0,0,0.947488,-14.0158,34.7125)">
                        <path d="M537.645,489.165L365.88,489.165L365.88,489.048C365.88,425.328 400.443,369.766 451.879,340.018L451.908,340.076L537.907,489.048L537.849,489.165L537.645,489.165Z" style="fill:rgb(194,24,91);fill-rule:nonzero;"/>
                    </g>
                    <g transform="matrix(1.01974,0,0,0.947488,-14.0158,34.7125)">
                        <path d="M709.585,489.165L537.966,489.165L537.908,489.048L623.936,340.076L623.965,340.047C675.372,369.765 709.935,425.357 709.935,489.048L709.935,489.165L709.585,489.165Z" style="fill:rgb(48,63,159);fill-rule:nonzero;"/>
                    </g>
                    <g transform="matrix(1.01974,0,0,0.947488,-14.0158,34.7125)">
                        <path d="M537.907,489.048L451.908,340.075L451.879,340.017C477.174,325.42 506.55,317.058 537.907,317.058C569.264,317.058 598.669,325.42 623.964,340.046L623.935,340.075L537.907,489.048Z" style="fill:rgb(63,81,181);fill-rule:nonzero;"/>
                    </g>
                </g>
            </g>
        </g>
    </g>
</svg>
