<?xml version="1.0" encoding="UTF-8" standalone="no"?>
<!DOCTYPE svg PUBLIC "-//W3C//DTD SVG 1.1//EN" "http://www.w3.org/Graphics/SVG/1.1/DTD/svg11.dtd">
<svg width="100%" height="100%" viewBox="0 0 50 50" version="1.1" xmlns="http://www.w3.org/2000/svg" xmlns:xlink="http://www.w3.org/1999/xlink" xml:space="preserve" style="fill-rule:evenodd;clip-rule:evenodd;stroke-linejoin:round;stroke-miterlimit:1.41421;">
    <g transform="matrix(0.177494,0,0,0.178126,-37.9394,-87.8252)">
        <path d="M485.4,633.4C485.4,704.88 426.58,763.7 355.1,763.7C283.62,763.7 224.8,704.88 224.8,633.4C224.8,561.92 283.62,503.1 355.1,503.1C426.58,503.1 485.4,561.92 485.4,633.4Z" style="fill:white;fill-rule:nonzero;"/>
    </g>
    <g transform="matrix(0.177494,0,0,0.178126,-37.9394,-87.8252)">
        <path d="M292.2,633.4C292.2,581.1 315.8,534.4 352.9,503.2C281.5,503.8 223.8,561.9 223.8,633.4C223.8,704.9 281.4,763 352.8,763.7C315.7,732.4 292.2,685.7 292.2,633.4Z" style="fill:rgb(0,188,212);fill-rule:nonzero;"/>
    </g>
    <g transform="matrix(0.177494,0,0,0.178126,-37.9394,-87.8252)">
        <path d="M416.9,633.4C416.9,581.1 393.3,534.4 356.2,503.2C427.6,503.8 485.3,561.9 485.3,633.4C485.3,704.9 427.7,763 356.2,763.7C393.3,732.4 416.9,685.7 416.9,633.4Z" style="fill:rgb(233,30,99);fill-rule:nonzero;"/>
    </g>
    <g transform="matrix(0.177494,0,0,0.178126,-37.9394,-87.8252)">
        <path d="M290.6,520.3C309.6,531.2 331.6,537.4 355.1,537.4C378.6,537.4 400.6,531.2 419.6,520.3C400.6,509.4 378.6,503.2 355.1,503.2C331.6,503.2 309.6,509.4 290.6,520.3Z" style="fill:rgb(63,81,181);fill-rule:nonzero;"/>
    </g>
</svg>
